<svg viewBox="0 0 64 64"
    xmlns="http://www.w3.org/2000/svg" data-name="Layer 3">
    <path d="m57 27a25 25 0 1 0 -28.576 24.741l3.576 6.259 3.576-6.259a25 25 0 0 0 21.424-24.741z" fill="#d24034" style="fill: rgb(77, 50, 210);"></path>
    <circle cx="32" cy="27" fill="#ccc" r="19"></circle>
    <path d="m32 8a18.98 18.98 0 0 0 -15.473 30h24.473a4 4 0 0 0 4-4v-20.83a18.915 18.915 0 0 0 -13-5.17z" fill="#f2f2f2"></path>
    <rect fill="#fff" height="20" rx="4" width="20" x="19" y="14"></rect>
    <path d="m19 20h26v14h-26z" fill="#559b38"></path>
    <path d="m19 20v11h21a2 2 0 0 0 2-2v-9z" fill="#6bc148"></path>
    <circle cx="32" cy="27" fill="#ccc" r="7"></circle>
    <path d="m37 22.106a7 7 0 0 0 -10.74 8.894h7.74a3 3 0 0 0 3-3z" fill="#f2f2f2"></path>
    <rect fill="#fff" height="5" rx="2" width="6" x="28" y="23"></rect>
    <path d="m32 1a26 26 0 0 0 -4.2 51.656l3.337 5.84a1 1 0 0 0 1.736 0l3.337-5.84a26 26 0 0 0 -4.21-51.656zm3.435 49.751a1 1 0 0 0 -.727.494l-2.708 4.739-2.708-4.739a1 1 0 0 0 -.727-.494 24 24 0 1 1 6.87 0z" fill="#000000"></path>
    <path d="m32 7a20 20 0 1 0 20 20 20.023 20.023 0 0 0 -20-20zm0 38a18 18 0 1 1 18-18 18.021 18.021 0 0 1 -18 18z" fill="#000000"></path>
    <path d="m21 61h22v2h-22z" fill="#000000"></path>
    <path d="m45 19h-26a1 1 0 0 0 -1 1v14a1 1 0 0 0 1 1h26a1 1 0 0 0 1-1v-14a1 1 0 0 0 -1-1zm-14 2.09v1.094a2.993 2.993 0 0 0 1 5.816 1 1 0 1 1 -1 1h-2a3 3 0 0 0 2 2.816v1.094a5.993 5.993 0 0 1 0-11.82zm2 11.82v-1.094a2.993 2.993 0 0 0 -1-5.816 1 1 0 1 1 1-1h2a3 3 0 0 0 -2-2.816v-1.094a5.993 5.993 0 0 1 0 11.82zm-13 .09v-12h6.726a7.966 7.966 0 0 0 0 12zm24 0h-6.726a7.966 7.966 0 0 0 0-12h6.726z" fill="#000000"></path>
</svg>