<!-- icon666.com - MILLIONS vector ICONS FREE -->
<svg viewBox="0 0 64 64"
    xmlns="http://www.w3.org/2000/svg">
    <g id="Blue">
        <path d="m53 24.267c0 18.366-21 36.733-21 36.733s-21-18.367-21-36.733a21 21 0 1 1 42 0z" fill="#4282f5" style="fill: rgb(9, 79, 211);"></path>
        <circle cx="32" cy="24" fill="#90b6f9" r="17" style="fill: rgb(255, 255, 255);"></circle>
        <path d="m21 17h22v8h-22z" fill="#206df3" style="fill: rgb(38, 117, 253);"></path>
        <path d="m26 21h12v14h-12z" fill="#bbd1fb"></path>
        <path d="m32 25c1.657 0 3-1.791 3-4h-6c0 2.209 1.343 4 3 4z" fill="#206df3" style="fill: rgb(38, 117, 253);"></path>
        <g fill="#0444b7">
            <path d="m43 16h-22a1 1 0 0 0 -1 1v8a1 1 0 0 0 1 1h4v8a2 2 0 0 0 2 2h10a2 2 0 0 0 2-2v-8h4a1 1 0 0 0 1-1v-8a1 1 0 0 0 -1-1zm-9 6a2 2 0 0 1 -4 0zm-6 0a4 4 0 0 0 8 0h1v8.1a5.014 5.014 0 0 0 -3.9 3.9h-2.2a5.016 5.016 0 0 0 -3.9-3.9v-8.1zm-1 10.184a3 3 0 0 1 1.816 1.816h-1.816zm8.184 1.816a3 3 0 0 1 1.816-1.816v1.816zm6.816-10h-3v-2h1v-2h-16v2h1v2h-3v-6h20z" fill="#0444b7" style="fill: rgb(9, 79, 211);"></path>
            <path d="m32 2a22.16 22.16 0 0 0 -22 22.267c0 7.841 3.6 16.542 10.7 25.86a86.5 86.5 0 0 0 10.642 11.626 1 1 0 0 0 1.316 0 86.5 86.5 0 0 0 10.642-11.626c7.1-9.318 10.7-18.019 10.7-25.86a22.16 22.16 0 0 0 -22-22.267zm0 57.646c-3.527-3.288-20-19.5-20-35.379a20 20 0 1 1 40 0c0 15.88-16.473 32.091-20 35.379z" fill="#0444b7" style="fill: rgb(9, 79, 211);"></path>
            <path d="m32 6a18 18 0 1 0 18 18 18.021 18.021 0 0 0 -18-18zm0 34a16 16 0 1 1 16-16 16.019 16.019 0 0 1 -16 16z" fill="#0444b7" style="fill: rgb(9, 79, 211);"></path>
        </g>
    </g>
</svg>