<!-- icon666.com - MILLIONS vector ICONS FREE -->
<svg viewBox="-53 0 512 512"
    xmlns="http://www.w3.org/2000/svg">
    <g fill-rule="evenodd">
        <path d="m356.191406 378.171875c-4.105468-2.398437-9.378906-1.109375-11.914062 2.914063-25.335938 38.402343-60.382813 60.292968-97.105469 60.292968-42.019531 0-79.449219-27.71875-103.722656-70.621094h77.242187c4.875 0 8.824219-3.953124 8.824219-8.828124v-52.964844c0-4.875-3.949219-8.828125-8.824219-8.828125h-102.136718c-2.535157-14.574219-3.804688-29.34375-3.796876-44.136719 0-3 0-5.914062 0-8.828125h105.933594c4.875 0 8.824219-3.953125 8.824219-8.828125v-52.964844c0-4.875-3.949219-8.828125-8.824219-8.828125h-93.132812c21.273437-62.5 66.648437-105.929687 119.613281-105.929687 33.457031 0 65.148437 17.65625 89.867187 49.875 2.796876 3.855468 8.148438 4.792968 12.09375 2.117187l43.519532-30.277343c1.953125-1.351563 3.277344-3.433594 3.675781-5.777344.402344-2.34375-.160156-4.746094-1.558594-6.667969-38.3125-50.9375-91.628906-79.890625-147.597656-79.890625-90.039063 0-166.488281 74.152344-193.058594 176.550781h-45.285156c-4.875 0-8.828125 3.953125-8.828125 8.828125v52.964844c0 4.875 3.953125 8.828125 8.828125 8.828125h35.308594v8.828125c.039062 14.765625 1.070312 29.511719 3.089843 44.136719h-38.398437c-4.875 0-8.828125 3.953125-8.828125 8.828125v52.964844c0 4.875 3.953125 8.828124 8.828125 8.828124h56.847656c33.457031 83.6875 102.046875 141.242188 181.496094 141.242188 61.792969 0 119.171875-34.339844 157.75-94.457031 1.257813-2.015625 1.648437-4.457031 1.082031-6.765625-.5625-2.308594-2.035156-4.292969-4.082031-5.503906zm0 0" fill="#5e9cea"></path>
        <g fill="#73b0f4">
            <path d="m238.34375 44.136719c-4.675781.007812-8.546875-3.628907-8.828125-8.296875-.300781-4.847656 3.367187-9.027344 8.210937-9.355469h9.535157c4.875 0 8.828125 3.949219 8.828125 8.824219 0 4.878906-3.953125 8.828125-8.828125 8.828125-2.738281 0-5.5625 0-8.300781 0zm0 0" fill="#73b0f4" style="fill: rgb(94, 156, 234);"></path>
            <path d="m194.207031 55.4375c-3.519531.011719-6.714843-2.070312-8.121093-5.296875-.945313-2.152344-.992188-4.59375-.128907-6.78125.859375-2.1875 2.558594-3.941406 4.71875-4.871094 3.089844-1.324219 6.179688-2.558593 9.355469-3.707031 4.539062-1.496094 9.445312.886719 11.070312 5.378906 1.625 4.492188-.621093 9.464844-5.066406 11.214844-2.824218.972656-5.5625 2.121094-8.296875 3.269531-1.109375.503907-2.3125.773438-3.53125.792969zm0 0" fill="#73b0f4" style="fill: rgb(94, 156, 234);"></path>
            <path d="m112.992188 132.414062c-1.546876.011719-3.066407-.386718-4.414063-1.148437-2.042969-1.164063-3.535156-3.097656-4.148437-5.367187-.613282-2.269532-.296876-4.691407.882812-6.726563 19.039062-35.375 48.972656-63.667969 85.363281-80.683594 2.917969-1.464843 6.40625-1.195312 9.070313.695313 2.660156 1.890625 4.0625 5.09375 3.640625 8.332031-.417969 3.238281-2.59375 5.980469-5.648438 7.128906-32.90625 15.527344-59.933593 41.253907-77.066406 73.355469-1.582031 2.742188-4.511719 4.425781-7.679687 4.414062zm0 0" fill="#73b0f4" style="fill: rgb(94, 156, 234);"></path>
            <path d="m93.394531 176.550781c-.925781-.015625-1.847656-.164062-2.734375-.441406-2.246094-.726563-4.105468-2.320313-5.167968-4.425781-1.058594-2.105469-1.234376-4.546875-.484376-6.785156 1.238282-3.617188 2.472657-7.148438 3.886719-10.679688.890625-3.234375 3.539063-5.683594 6.835938-6.320312 3.292969-.636719 6.664062.652343 8.695312 3.320312 2.035157 2.667969 2.378907 6.261719.886719 9.265625-1.234375 3.265625-2.382812 6.621094-3.53125 10.066406-1.214844 3.59375-4.589844 6.011719-8.386719 6zm0 0" fill="#73b0f4" style="fill: rgb(94, 156, 234);"></path>
            <path d="m185.378906 469.980469c-1.414062.035156-2.816406-.296875-4.058594-.972657-3.179687-1.675781-6.269531-3.441406-9.359374-5.292968-3.273438-1.253906-5.5-4.328125-5.664063-7.828125-.167969-3.503907 1.753906-6.773438 4.898437-8.328125 3.140626-1.558594 6.90625-1.105469 9.59375 1.148437l8.296876 4.679688c3.492187 1.871093 5.308593 5.835937 4.445312 9.703125-.863281 3.867187-4.195312 6.683594-8.152344 6.890625zm0 0" fill="#73b0f4" style="fill: rgb(94, 156, 234);"></path>
            <path d="m247.171875 485.515625c-9.550781.003906-19.074219-.972656-28.425781-2.910156-2.3125-.46875-4.34375-1.839844-5.636719-3.816407-1.292969-1.972656-1.742187-4.382812-1.246094-6.691406.484375-2.296875 1.867188-4.304687 3.839844-5.578125 1.96875-1.277343 4.367187-1.714843 6.664063-1.21875 8.160156 1.695313 16.472656 2.554688 24.804687 2.5625 23.328125-.101562 46.164063-6.707031 65.941406-19.070312 4.148438-2.515625 9.550781-1.214844 12.09375 2.914062 1.238281 2 1.625 4.410157 1.078125 6.699219-.546875 2.285156-1.980468 4.257812-3.988281 5.484375-22.550781 14.035156-48.5625 21.523437-75.125 21.625zm0 0" fill="#73b0f4" style="fill: rgb(94, 156, 234);"></path>
            <path d="m347.984375 441.378906c-3.570313-.015625-6.78125-2.179687-8.132813-5.484375-1.351562-3.300781-.582031-7.097656 1.953126-9.609375 2.734374-2.738281 5.382812-5.472656 7.945312-8.386718 2.035156-2.527344 5.292969-3.734376 8.484375-3.140626 3.191406.589844 5.800781 2.886719 6.792969 5.976563.992187 3.089844.210937 6.476563-2.035156 8.816406-2.828126 3.265625-5.828126 6.355469-8.828126 9.269531-1.644531 1.628907-3.863281 2.550782-6.179687 2.558594zm0 0" fill="#73b0f4" style="fill: rgb(94, 156, 234);"></path>
        </g>
    </g>
</svg>