<!-- icon666.com - MILLIONS vector ICONS FREE -->
<svg viewBox="-96 0 512 512"
    xmlns="http://www.w3.org/2000/svg">
    <path d="m273.085938 0h-227.046876c-25.386718 0-46.039062 20.652344-46.039062 46.039062v419.921876c0 25.386718 20.652344 46.039062 46.039062 46.039062h227.050782c25.382812 0 46.039062-20.652344 46.039062-46.039062v-419.921876c-.003906-25.386718-20.65625-46.039062-46.042968-46.039062zm-227.046876 30h227.050782c8.84375 0 16.039062 7.195312 16.039062 16.039062v34.804688h-259.128906v-34.804688c0-8.84375 7.195312-16.039062 16.039062-16.039062zm243.085938 328.949219h-259.125v-248.105469h259.128906v248.105469zm-16.039062 123.050781h-227.046876c-8.84375 0-16.039062-7.195312-16.039062-16.039062v-77.011719h259.128906v77.011719c-.003906 8.84375-7.199218 16.039062-16.042968 16.039062zm0 0"/>
    <path d="m141.078125 70.535156h36.972656c8.28125 0 15-6.714844 15-15 0-8.28125-6.71875-15-15-15h-36.972656c-8.285156 0-15 6.71875-15 15 0 8.285156 6.714844 15 15 15zm0 0"/>
    <path d="m183.121094 434.796875c0 13.011719-10.546875 23.558594-23.558594 23.558594s-23.558594-10.546875-23.558594-23.558594 10.546875-23.558594 23.558594-23.558594 23.558594 10.546875 23.558594 23.558594zm0 0"/>
    <path d="m135.667969 206.214844c7.875 6.414062 12.441406 16.628906 12.53125 28.03125.089843 11.691406-4.660157 22.714844-12.710938 29.480468-6.339843 5.332032-7.160156 14.792969-1.828125 21.132813 2.96875 3.53125 7.214844 5.347656 11.488282 5.347656 3.410156 0 6.835937-1.152343 9.648437-3.519531 15.035156-12.640625 23.5625-31.839844 23.402344-52.675781-.160157-20.367188-8.753907-38.980469-23.582031-51.058594-6.421876-5.234375-15.871094-4.269531-21.105469 2.15625-5.230469 6.421875-4.265625 15.871094 2.15625 21.105469zm0 0"/>
    <path d="m88.730469 265.988281c2.734375 2.121094 5.972656 3.148438 9.183593 3.148438 4.476563 0 8.90625-1.992188 11.863282-5.804688 13.832031-17.824219 13.996094-39.054687.441406-56.789062-5.027344-6.582031-14.441406-7.835938-21.023438-2.808594-6.582031 5.03125-7.839843 14.445313-2.8125 21.027344 5.199219 6.796875 5.101563 13.210937-.308593 20.179687-5.078125 6.542969-3.890625 15.96875 2.65625 21.046875zm0 0"/>
    <path d="m179.882812 173c16.542969 13.808594 26.132813 35.910156 26.316407 60.640625.1875 25.207031-9.714844 48.867187-26.484375 63.292969-6.28125 5.402344-6.992188 14.875-1.59375 21.152344 2.96875 3.449218 7.160156 5.21875 11.378906 5.21875 3.464844 0 6.945312-1.191407 9.777344-3.628907 23.367187-20.101562 37.171875-52.347656 36.917968-86.253906-.246093-33.566406-13.765624-63.980469-37.089843-83.449219-6.359375-5.3125-15.816407-4.457031-21.125 1.898438-5.308594 6.359375-4.457031 15.820312 1.902343 21.128906zm0 0"/>
</svg>