<!-- icon666.com - MILLIONS vector ICONS FREE -->
<svg id="Layer_3" viewBox="0 0 64 64"
    xmlns="http://www.w3.org/2000/svg" data-name="Layer 3">
    <path d="m57 27a25 25 0 1 0 -28.576 24.741l3.576 6.259 3.576-6.259a25 25 0 0 0 21.424-24.741z" fill="#d24034" style="fill: rgb(50, 55, 210);"></path>
    <circle cx="32" cy="27" fill="#ccc" r="19"></circle>
    <path d="m32 8a18.98 18.98 0 0 0 -15.473 30h24.473a4 4 0 0 0 4-4v-20.83a18.915 18.915 0 0 0 -13-5.17z" fill="#f2f2f2"></path>
    <rect fill="#fff" height="20" rx="4" width="20" x="19" y="14"></rect>
    <path d="m22 24h4v9h-4z" fill="#686868"></path>
    <path d="m44 24v-3l-12-8-12 8v3z" fill="#f3a845"></path>
    <path d="m32 13-12 8v1h16a3 3 0 0 0 3-3v-1.333z" fill="#eecc61"></path>
    <path d="m20 33h24v4h-24z" fill="#f3a845"></path>
    <circle cx="32" cy="19" fill="#fff" r="2"></circle>
    <path d="m32 28a2 2 0 0 0 -2 2v3h4v-3a2 2 0 0 0 -2-2z" fill="#686868"></path>
    <path d="m20 35h20a2 2 0 0 0 2-2h-22z" fill="#eecc61"></path>
    <path d="m22 24v7a2 2 0 0 0 2-2v-5z" fill="#939393"></path>
    <path d="m38 24h4v9h-4z" fill="#686868"></path>
    <path d="m38 24v7a2 2 0 0 0 2-2v-5z" fill="#939393"></path>
    <path d="m31 32a2 2 0 0 0 2-2v-1.723a1.988 1.988 0 0 0 -3 1.723v2z" fill="#939393"></path>
    <path d="m32 1a26 26 0 0 0 -4.2 51.657l3.332 5.843a1 1 0 0 0 1.736 0l3.337-5.839a26 26 0 0 0 -4.205-51.661zm3.434 49.751a1 1 0 0 0 -.726.494l-2.708 4.739-2.708-4.739a1 1 0 0 0 -.726-.494 24 24 0 1 1 6.868 0z" fill="#000000"></path>
    <path d="m32 7a20 20 0 1 0 20 20 20.023 20.023 0 0 0 -20-20zm0 38a18 18 0 1 1 18-18 18.021 18.021 0 0 1 -18 18z" fill="#000000"></path>
    <path d="m21 61h22v2h-22z" fill="#000000"></path>
    <path d="m44 25a1 1 0 0 0 1-1v-3a1 1 0 0 0 -.445-.832l-12-8a1 1 0 0 0 -1.11 0l-12 8a1 1 0 0 0 -.445.832v3a1 1 0 0 0 1 1h1v7h-1a1 1 0 0 0 -1 1v4a1 1 0 0 0 1 1h24a1 1 0 0 0 1-1v-4a1 1 0 0 0 -1-1h-1v-7zm-23-3.465 11-7.335 11 7.333v1.467h-22zm14 10.465v-2a3 3 0 0 0 -6 0v2h-2v-7h10v7zm-2 0h-2v-2a1 1 0 0 1 2 0zm-10-7h2v7h-2zm20 11h-22v-2h22zm-2-4h-2v-7h2z" fill="#000000"></path>
    <path d="m32 16a3 3 0 1 0 3 3 3 3 0 0 0 -3-3zm0 4a1 1 0 1 1 1-1 1 1 0 0 1 -1 1z" fill="#000000"></path>
</svg>