<!-- icon666.com - MILLIONS vector ICONS FREE -->
<svg id="Layer_1" enable-background="new 0 0 512 512" viewBox="0 0 512 512"
    xmlns="http://www.w3.org/2000/svg">
    <g>
        <path d="m449.959 195.666c9.892-10.862 15.932-25.292 15.932-41.107 0-33.695-27.414-61.109-61.109-61.109-22.116 0-41.526 11.81-52.254 29.454-13.002-17.834-34.039-29.454-57.75-29.454-26.159 0-49.065 14.141-61.513 35.171-16.227-21.355-41.886-35.171-70.714-35.171-48.951 0-88.775 39.824-88.775 88.775 0 27.692 12.748 52.461 32.681 68.753-62.074 22.895-106.457 82.647-106.457 152.572 0 8.284 6.716 15 15 15h295.1c8.284 0 15-6.716 15-15 0-19.047-3.304-37.335-9.351-54.334h91.911c8.284 0 15-6.716 15-15 0-9.023-.945-17.828-2.731-26.328h77.071c8.284 0 15-6.716 15-15 0-42.989-25.434-80.143-62.041-97.222zm-45.178-72.216c17.153 0 31.109 13.956 31.109 31.109s-13.956 31.109-31.109 31.109-31.109-13.956-31.109-31.109 13.956-31.109 31.109-31.109zm-110.004 0c22.851 0 41.441 18.591 41.441 41.441s-18.591 41.441-41.441 41.441-41.441-18.591-41.441-41.441 18.591-41.441 41.441-41.441zm-191.002 58.776c0-32.409 26.366-58.775 58.775-58.775 32.408 0 58.774 26.366 58.774 58.775 0 32.408-26.366 58.774-58.774 58.774-32.409 0-58.775-26.366-58.775-58.774zm-72.932 206.324c7.475-66.051 63.691-117.55 131.707-117.55s124.231 51.499 131.706 117.55zm270.622-69.334c-16.111-26.439-39.558-47.935-67.487-61.655 16.711-13.282 37.844-21.228 60.8-21.228 48.873 0 89.495 36.005 96.735 82.883zm108.1-41.328c-10.208-20.717-25.859-38.286-45.078-50.831 11.739-7.212 25.535-11.387 40.294-11.387 37.448 0 68.756 26.794 75.757 62.219h-70.973z"/>
    </g>
</svg>